<?xml version="1.0" encoding="UTF-8" standalone="no"?>
<!-- Created with Inkscape (http://www.inkscape.org/) -->

<svg
   width="70mm"
   height="70mm"
   viewBox="0 0 70 70"
   version="1.1"
   id="svg5"
   inkscape:version="1.1.2 (0a00cf5339, 2022-02-04)"
   sodipodi:docname="iconoNuevo.svg"
   xmlns:inkscape="http://www.inkscape.org/namespaces/inkscape"
   xmlns:sodipodi="http://sodipodi.sourceforge.net/DTD/sodipodi-0.dtd"
   xmlns="http://www.w3.org/2000/svg"
   xmlns:svg="http://www.w3.org/2000/svg">
  <sodipodi:namedview
     id="namedview7"
     pagecolor="#ffffff"
     bordercolor="#666666"
     borderopacity="1.0"
     inkscape:pageshadow="2"
     inkscape:pageopacity="0.0"
     inkscape:pagecheckerboard="0"
     inkscape:document-units="mm"
     showgrid="false"
     inkscape:zoom="0.73940798"
     inkscape:cx="-6.7621667"
     inkscape:cy="96.022767"
     inkscape:window-width="1920"
     inkscape:window-height="1008"
     inkscape:window-x="0"
     inkscape:window-y="0"
     inkscape:window-maximized="1"
     inkscape:current-layer="layer2"
     fit-margin-top="0"
     fit-margin-left="0"
     fit-margin-right="0"
     fit-margin-bottom="0" />
  <defs
     id="defs2" />
  <g
     inkscape:label="Layer 1"
     inkscape:groupmode="layer"
     id="layer1"
     transform="translate(0.63730595,-19.460411)">
    <path
       id="path46"
       style="fill:#806600;stroke:#000000;stroke-width:0.264583px;stroke-linecap:butt;stroke-linejoin:miter;stroke-opacity:1"
       d="m 21.830755,48.284105 c -5.991847,3.17736 -11.419106,6.445194 -15.8558794,9.871747 -2.1906461,1.828467 -2.2331484,1.838055 -2.7528035,5.60896 0.1525032,2.123107 -0.4786076,4.364554 2.354895,6.082316 14.3754179,4.556776 26.0514729,6.613702 37.7237959,8.667173 0.870043,-0.455909 15.419718,-13.137872 20.334978,-20.880194 0.339228,-7.311779 0.357831,-7.448704 -3.392344,-8.481838 L 45.32441,48.463937 Z"
       sodipodi:nodetypes="ccccccccc" />
    <path
       style="fill:#786721;stroke:#000000;stroke-width:0.264583px;stroke-linecap:butt;stroke-linejoin:miter;stroke-opacity:1"
       d="m 40.291366,43.500568 c 0,0 -9.600036,-0.705958 -10.62749,-0.258667 -1.027455,0.447289 -13.522203,4.314277 -13.522203,4.314277 l 1.836659,7.559329 25.074985,4.054186 6.033217,-6.595067 z"
       id="path44" />
    <g
       id="g4922"
       transform="translate(3.7264341,11.836717)">
      <path
         style="fill:#333333;stroke:#000000;stroke-width:0.264583px;stroke-linecap:butt;stroke-linejoin:miter;stroke-opacity:1"
         d="M 29.466735,35.414757 56.324362,19.592919 c 4.974784,0.02987 5.173585,0.120557 4.108431,5.560243 L 32.511195,40.021644 c -2.360231,-1.0774 -3.505717,-2.568526 -3.04446,-4.606887 z"
         id="path42"
         sodipodi:nodetypes="ccccc" />
      <g
         id="g4917">
        <ellipse
           style="fill:#000000;stroke-width:0.323184"
           id="path1431"
           cx="58.429722"
           cy="22.536308"
           rx="2.1029532"
           ry="2.3361862" />
      </g>
    </g>
  </g>
  <g
     inkscape:groupmode="layer"
     id="layer2"
     inkscape:label="Layer 2"
     transform="translate(0.63730595,-19.460411)">
    <path
       style="fill:#333333;stroke:#000000;stroke-width:0.264583px;stroke-linecap:butt;stroke-linejoin:miter;stroke-opacity:1"
       d="m 5.7955338,61.143662 35.9183252,5.882963 c 3.10223,2.861433 3.158913,6.215222 0.41349,10.022011 L 6.3379677,67.971703 C 3.6748767,66.881163 3.4506685,62.721028 5.7955338,61.143662 Z"
       id="path5052"
       sodipodi:nodetypes="ccccc" />
  </g>
</svg>
